<svg width="214" height="56" viewBox="0 0 214 56" fill="none" xmlns="http://www.w3.org/2000/svg">
<path d="M52.8636 23.8182V18.7273H73.0909V23.8182H66.0909V42H59.8636V23.8182H52.8636ZM84.5028 34.3636V24.5455H90.7756V42H84.821V38.6818H84.6392C84.2604 39.7955 83.5975 40.6667 82.6506 41.2955C81.7036 41.9167 80.5786 42.2273 79.2756 42.2273C78.0559 42.2273 76.9877 41.947 76.071 41.3864C75.1619 40.8258 74.4536 40.053 73.946 39.0682C73.446 38.0833 73.1922 36.9545 73.1847 35.6818V24.5455H79.4574V34.3636C79.465 35.2273 79.6847 35.9053 80.1165 36.3977C80.5559 36.8902 81.1695 37.1364 81.9574 37.1364C82.4801 37.1364 82.9309 37.0265 83.3097 36.8068C83.696 36.5795 83.9915 36.2614 84.196 35.8523C84.4081 35.4356 84.5104 34.9394 84.5028 34.3636ZM104.375 24.5455V29.0909H92.875V24.5455H104.375ZM95.1023 20.3636H101.375V36.3864C101.375 36.6288 101.417 36.8333 101.5 37C101.583 37.1591 101.712 37.2803 101.886 37.3636C102.061 37.4394 102.284 37.4773 102.557 37.4773C102.746 37.4773 102.966 37.4545 103.216 37.4091C103.473 37.3636 103.663 37.3258 103.784 37.2955L104.693 41.7045C104.413 41.7879 104.011 41.8902 103.489 42.0114C102.973 42.1326 102.36 42.2121 101.648 42.25C100.208 42.3258 99 42.178 98.0227 41.8068C97.0455 41.428 96.3106 40.8333 95.8182 40.0227C95.3258 39.2121 95.0871 38.197 95.1023 36.9773V20.3636ZM115.156 42.3182C113.262 42.3182 111.641 41.9432 110.293 41.1932C108.944 40.4356 107.91 39.3826 107.19 38.0341C106.471 36.678 106.111 35.1061 106.111 33.3182C106.111 31.5303 106.471 29.9621 107.19 28.6136C107.91 27.2576 108.944 26.2045 110.293 25.4545C111.641 24.697 113.262 24.3182 115.156 24.3182C117.05 24.3182 118.671 24.697 120.02 25.4545C121.368 26.2045 122.402 27.2576 123.122 28.6136C123.842 29.9621 124.202 31.5303 124.202 33.3182C124.202 35.1061 123.842 36.678 123.122 38.0341C122.402 39.3826 121.368 40.4356 120.02 41.1932C118.671 41.9432 117.05 42.3182 115.156 42.3182ZM115.202 37.6818C115.732 37.6818 116.19 37.5038 116.577 37.1477C116.963 36.7917 117.262 36.2841 117.474 35.625C117.687 34.9659 117.793 34.1818 117.793 33.2727C117.793 32.3561 117.687 31.572 117.474 30.9205C117.262 30.2614 116.963 29.7538 116.577 29.3977C116.19 29.0417 115.732 28.8636 115.202 28.8636C114.641 28.8636 114.16 29.0417 113.759 29.3977C113.357 29.7538 113.05 30.2614 112.838 30.9205C112.626 31.572 112.52 32.3561 112.52 33.2727C112.52 34.1818 112.626 34.9659 112.838 35.625C113.05 36.2841 113.357 36.7917 113.759 37.1477C114.16 37.5038 114.641 37.6818 115.202 37.6818ZM126.747 42V24.5455H132.838V27.8636H133.02C133.338 26.6364 133.842 25.7386 134.531 25.1705C135.228 24.6023 136.043 24.3182 136.974 24.3182C137.247 24.3182 137.516 24.3409 137.781 24.3864C138.054 24.4242 138.315 24.4811 138.565 24.5568V29.9091C138.255 29.803 137.872 29.7235 137.418 29.6705C136.963 29.6174 136.573 29.5909 136.247 29.5909C135.634 29.5909 135.08 29.7311 134.588 30.0114C134.103 30.2841 133.721 30.6705 133.44 31.1705C133.16 31.6629 133.02 32.2424 133.02 32.9091V42H126.747Z" fill="white"/>
<path d="M160.668 18.7273V42H155.395L146.986 29.7727H146.849V42H140.531V18.7273H145.895L154.168 30.9091H154.349V18.7273H160.668ZM172.111 42.3182C170.247 42.3182 168.641 41.9621 167.293 41.25C165.952 40.5303 164.918 39.5 164.19 38.1591C163.471 36.8106 163.111 35.197 163.111 33.3182C163.111 31.5152 163.474 29.9394 164.202 28.5909C164.929 27.2424 165.955 26.1932 167.281 25.4432C168.607 24.6932 170.171 24.3182 171.974 24.3182C173.293 24.3182 174.486 24.5227 175.554 24.9318C176.622 25.3409 177.535 25.9356 178.293 26.7159C179.05 27.4886 179.634 28.428 180.043 29.5341C180.452 30.6402 180.656 31.8864 180.656 33.2727V34.7273H165.065V31.2727H174.884C174.876 30.7727 174.747 30.3333 174.497 29.9545C174.255 29.5682 173.925 29.2689 173.509 29.0568C173.099 28.8371 172.634 28.7273 172.111 28.7273C171.603 28.7273 171.137 28.8371 170.713 29.0568C170.289 29.2689 169.948 29.5644 169.69 29.9432C169.44 30.322 169.308 30.7652 169.293 31.2727V35C169.293 35.5606 169.41 36.0606 169.645 36.5C169.88 36.9394 170.217 37.2841 170.656 37.5341C171.096 37.7841 171.626 37.9091 172.247 37.9091C172.679 37.9091 173.073 37.8485 173.429 37.7273C173.793 37.6061 174.103 37.4318 174.361 37.2045C174.618 36.9697 174.808 36.6894 174.929 36.3636H180.656C180.459 37.5758 179.993 38.6288 179.259 39.5227C178.524 40.4091 177.55 41.0985 176.338 41.5909C175.134 42.0758 173.724 42.3182 172.111 42.3182ZM199.17 30.2273H193.398C193.367 29.8712 193.242 29.5644 193.023 29.3068C192.803 29.0492 192.519 28.8523 192.17 28.7159C191.83 28.572 191.451 28.5 191.034 28.5C190.496 28.5 190.034 28.5985 189.648 28.7955C189.261 28.9924 189.072 29.2727 189.08 29.6364C189.072 29.8939 189.182 30.1326 189.409 30.3523C189.644 30.572 190.095 30.7424 190.761 30.8636L194.307 31.5C196.095 31.8258 197.424 32.375 198.295 33.1477C199.174 33.9129 199.617 34.9394 199.625 36.2273C199.617 37.4697 199.246 38.5492 198.511 39.4659C197.784 40.375 196.788 41.0795 195.523 41.5795C194.265 42.072 192.83 42.3182 191.216 42.3182C188.549 42.3182 186.462 41.7727 184.955 40.6818C183.455 39.5909 182.617 38.1515 182.443 36.3636H188.67C188.754 36.9167 189.027 37.3447 189.489 37.6477C189.958 37.9432 190.549 38.0909 191.261 38.0909C191.837 38.0909 192.311 37.9924 192.682 37.7955C193.061 37.5985 193.254 37.3182 193.261 36.9545C193.254 36.6212 193.087 36.3561 192.761 36.1591C192.443 35.9621 191.943 35.803 191.261 35.6818L188.17 35.1364C186.39 34.8258 185.057 34.2348 184.17 33.3636C183.284 32.4924 182.845 31.3712 182.852 30C182.845 28.7879 183.163 27.7614 183.807 26.9205C184.458 26.072 185.386 25.428 186.591 24.9886C187.803 24.5417 189.239 24.3182 190.898 24.3182C193.42 24.3182 195.409 24.8409 196.864 25.8864C198.326 26.9318 199.095 28.3788 199.17 30.2273ZM212.438 24.5455V29.0909H200.938V24.5455H212.438ZM203.165 20.3636H209.438V36.3864C209.438 36.6288 209.479 36.8333 209.562 37C209.646 37.1591 209.775 37.2803 209.949 37.3636C210.123 37.4394 210.347 37.4773 210.619 37.4773C210.809 37.4773 211.028 37.4545 211.278 37.4091C211.536 37.3636 211.725 37.3258 211.847 37.2955L212.756 41.7045C212.475 41.7879 212.074 41.8902 211.551 42.0114C211.036 42.1326 210.422 42.2121 209.71 42.25C208.271 42.3258 207.063 42.178 206.085 41.8068C205.108 41.428 204.373 40.8333 203.881 40.0227C203.388 39.2121 203.15 38.197 203.165 36.9773V20.3636Z" fill="#6859C5"/>
<path d="M5.4067 16.825L4.41297 18.4895C2.46342 17.3256 2.46341 14.5017 4.41297 13.3378L22.4175 2.58879C23.3647 2.02328 24.5459 2.02328 25.4932 2.58879M5.4067 16.825L25.4932 2.58879M5.4067 16.825L4.41297 18.4895L22.4175 29.2385C23.3647 29.804 24.5459 29.804 25.4931 29.2385L24.4679 27.5212M5.4067 16.825L24.4679 27.5212M25.4932 2.58879L43.4977 13.3378C45.4472 14.5017 45.4472 17.3256 43.4977 18.4895L25.4932 29.2385L24.4679 27.5212M25.4932 2.58879L24.4679 27.5212" stroke="#6859C5" stroke-width="4"/>
<path d="M25.4335 11.176L24.6173 12.6174L25.4335 11.176C24.5164 10.6568 23.3941 10.6568 22.477 11.176L10.0643 18.2047C9.12382 18.7373 8.54249 19.7345 8.54249 20.8153V34.8393C8.54249 35.92 9.12382 36.9173 10.0643 37.4498L22.477 44.4785C23.3941 44.9978 24.5164 44.9978 25.4335 44.4785L37.8462 37.4498C38.7867 36.9173 39.368 35.92 39.368 34.8393V20.8153C39.368 19.7345 38.7867 18.7373 37.8462 18.2047L25.4335 11.176Z" stroke="#6859C5" stroke-width="4"/>
<circle cx="24.2532" cy="52.8355" r="3.16456" fill="#6859C5"/>
</svg>
