<svg width="47" height="56" viewBox="0 0 47 56" fill="none" xmlns="http://www.w3.org/2000/svg">
<path d="M43.4977 13.3378L25.4932 2.58879C24.5459 2.02328 23.3647 2.02328 22.4175 2.58879L4.41297 13.3378C2.46341 14.5017 2.46342 17.3256 4.41297 18.4895L22.4175 29.2385C23.3647 29.804 24.5459 29.804 25.4932 29.2385L43.4977 18.4895C45.4472 17.3256 45.4472 14.5017 43.4977 13.3378Z" stroke="#b57cff" stroke-width="4"/>
<path d="M37.8462 18.2047L25.4335 11.176C24.5164 10.6568 23.3941 10.6568 22.477 11.176L10.0643 18.2047C9.12382 18.7373 8.54249 19.7345 8.54249 20.8153V34.8393C8.54249 35.92 9.12382 36.9173 10.0643 37.4498L22.477 44.4785C23.3941 44.9978 24.5164 44.9978 25.4335 44.4785L37.8462 37.4498C38.7867 36.9173 39.368 35.92 39.368 34.8393V20.8153C39.368 19.7345 38.7867 18.7373 37.8462 18.2047Z" stroke="#b57cff" stroke-width="4"/>
<circle cx="24.2532" cy="52.8355" r="3.16456" fill="#b57cff"/>
</svg>
